<?xml version="1.0" standalone="no"?>
<!DOCTYPE svg PUBLIC "-//W3C//DTD SVG 20010904//EN"
 "http://www.w3.org/TR/2001/REC-SVG-20010904/DTD/svg10.dtd">
<svg version="1.0" xmlns="http://www.w3.org/2000/svg"
 width="141.000000pt" height="105.000000pt" viewBox="0 0 141.000000 105.000000"
 preserveAspectRatio="xMidYMid meet">

<g transform="translate(0.000000,105.000000) scale(0.100000,-0.100000)"
fill="#000000" stroke="none">
<path d="M142 624 l3 -419 91 -6 c111 -8 223 -38 312 -83 133 -68 141 -65
-175 -66 l-283 0 -2 452 c-3 395 -5 453 -18 453 -13 0 -15 -60 -18 -472 l-2
-473 665 0 665 0 0 463 c0 254 -4 468 -9 476 -5 8 -16 11 -25 8 -14 -6 -16
-53 -16 -457 l0 -450 -276 0 c-162 0 -273 4 -270 9 10 16 95 61 164 87 84 32
195 54 273 54 l59 0 0 420 0 420 -54 0 c-71 0 -179 -23 -256 -54 -70 -29 -182
-101 -224 -144 l-28 -31 -65 54 c-124 102 -271 162 -426 172 l-87 6 2 -419z
m212 350 c88 -23 179 -69 262 -135 l74 -59 0 -349 0 -350 -49 33 c-97 65 -230
108 -403 131 l-48 6 0 376 0 375 53 -7 c28 -4 78 -13 111 -21z m886 -348 l0
-375 -47 -6 c-172 -22 -291 -58 -392 -119 -32 -20 -61 -36 -65 -36 -3 0 -6
153 -6 339 l0 339 54 48 c115 105 283 177 429 183 l27 1 0 -374z"/>
<path d="M254 855 c-8 -19 11 -35 42 -35 41 0 147 -43 234 -96 86 -52 110 -59
110 -31 -1 22 -139 106 -231 141 -94 35 -147 42 -155 21z"/>
<path d="M252 713 c2 -11 22 -20 64 -29 63 -13 179 -66 252 -116 40 -28 72
-32 72 -9 0 25 -156 117 -255 151 -74 25 -138 27 -133 3z"/>
<path d="M250 581 c0 -14 10 -20 45 -24 61 -9 177 -58 250 -107 62 -42 95 -50
95 -25 0 26 -157 121 -257 154 -81 27 -133 28 -133 2z"/>
<path d="M250 453 c0 -17 10 -22 58 -32 65 -13 177 -63 257 -117 53 -34 75
-37 75 -9 0 36 -247 161 -341 172 -44 5 -49 4 -49 -14z"/>
<path d="M1085 856 c-109 -26 -295 -132 -295 -167 0 -26 12 -24 72 15 90 57
178 97 245 111 73 15 78 18 70 40 -7 18 -24 18 -92 1z"/>
<path d="M1054 716 c-98 -31 -264 -130 -264 -158 0 -27 15 -22 94 26 92 58
153 85 229 100 43 9 63 18 65 29 3 14 -5 17 -40 16 -24 0 -61 -6 -84 -13z"/>
<path d="M1048 581 c-103 -33 -258 -127 -258 -157 0 -22 27 -17 73 15 70 47
165 92 241 111 44 11 71 23 71 31 0 21 -62 21 -127 0z"/>
<path d="M1060 451 c-108 -35 -270 -128 -270 -156 0 -29 22 -25 81 16 81 55
170 94 247 109 49 10 62 16 60 29 -4 23 -53 24 -118 2z"/>
</g>
</svg>